<svg width="44" height="44" viewBox="0 0 44 44" fill="none" xmlns="http://www.w3.org/2000/svg">
<g id="logo-man 1">
<rect width="44" height="44" rx="22" fill="#F3F4F8"/>
<path id="Vector" d="M27.6758 19.128C27.8392 19.251 27.9815 19.3144 28.1257 19.3402L28.6833 21.9311L30.2733 19.5939L29.958 19.3918L29.8907 19.3501C30.2003 18.5928 30.431 17.8019 30.2118 17.4728C29.9368 17.0803 28.8313 15.8928 28.7544 15.8036C28.3544 15.3615 27.8181 15.54 27.522 15.9542C27.397 16.1525 27.2336 16.3269 27.149 16.5133C27.1509 16.5113 26.2645 18.0912 27.6758 19.128Z" fill="#171717"/>
<path id="Vector_2" d="M15.0481 35.249C14.5751 34.2499 15.3153 32.652 15.3345 32.6559C15.4095 32.6719 15.5441 32.6937 15.5441 32.6937L15.6748 33.0623C15.6748 33.0623 15.7152 33.0664 15.7421 33.0723C17.9301 33.5065 20.4045 33.4073 20.8852 33.0505C22.0715 32.1782 23.2366 29.9203 23.6039 28.8062C23.6039 28.8062 25.8341 27.4661 27.601 27.6782C28.8815 27.8269 29.4025 28.9966 29.3987 30.7093C29.4833 30.7093 29.9544 30.7609 29.9544 30.7609C29.9544 30.7609 29.9139 30.9472 29.9062 31.0324C29.9062 31.1217 29.7044 31.3417 29.7236 31.425C29.864 32.091 30.1678 32.8225 30.8349 33.1476C33.1594 32.5767 35.3819 30.3307 35.3819 30.3307L34.5052 29.5456C33.8246 30.1205 32.7729 30.6062 32.0751 30.6835C32.0751 30.6835 32.771 25.3648 32.0366 24.6511C31.1406 23.769 29.7948 23.319 29.0122 23.4379L29.5467 25.8921L19.8412 28.3067C19.8412 28.3067 19.3009 26.8238 19.1414 26.3262C19.1568 27.5434 18.3473 29.4842 18.0108 29.8688C17.2072 30.848 15.7633 30.8461 14.7981 30.6241L13.9367 30.4001C13.9367 30.4001 13.208 31.4488 12.9389 32.0494C11.7527 34.7771 14.1867 35.915 14.1867 35.915H33.2421C32.8518 35.7664 28.5739 34.4956 24.7132 34.4956C21.1986 34.4996 17.4571 34.6661 15.0481 35.249Z" fill="#171717"/>
<path id="Vector_3" d="M17.432 25.1348C17.4339 25.1348 17.4378 25.1348 17.4435 25.1348C17.4454 25.1348 17.4473 25.1348 17.4473 25.1348C17.4531 25.1348 17.4589 25.1348 17.4666 25.1348C17.4685 25.1348 17.4723 25.1348 17.4743 25.1348C17.482 25.1348 17.4897 25.1348 17.4993 25.1327C17.5051 25.1327 17.5089 25.1327 17.5147 25.1327C17.5242 25.1327 17.5339 25.1307 17.5454 25.1307C17.5512 25.1307 17.557 25.1307 17.5627 25.1288C17.5762 25.1288 17.5897 25.1268 17.6031 25.1268C17.6088 25.1268 17.6146 25.1268 17.6223 25.1248C17.6377 25.1229 17.655 25.1229 17.6703 25.1208C17.6761 25.1208 17.6819 25.1208 17.6877 25.1189C17.7088 25.1169 17.73 25.1149 17.753 25.113C17.7569 25.113 17.7588 25.113 17.7627 25.113C17.8434 25.107 17.9357 25.097 18.0357 25.0871C18.0414 25.0871 18.0472 25.0851 18.053 25.0851C18.0799 25.0812 18.1088 25.0793 18.1356 25.0752C18.1433 25.0752 18.151 25.0733 18.1587 25.0733C18.1857 25.0693 18.2145 25.0674 18.2414 25.0633C18.2511 25.0614 18.2588 25.0614 18.2683 25.0594C18.2952 25.0555 18.3222 25.0514 18.351 25.0475C18.3606 25.0456 18.3702 25.0456 18.3798 25.0436C18.4068 25.0396 18.4356 25.0356 18.4645 25.0317C18.4741 25.0296 18.4837 25.0296 18.4932 25.0277C18.524 25.0237 18.5548 25.0177 18.5855 25.0138C18.5932 25.0118 18.599 25.0118 18.6067 25.0099C19.1432 24.9226 19.7103 24.7779 19.9564 24.5499C19.966 24.544 20.8216 23.0017 20.0295 22.3991C19.7911 22.1889 19.4277 22.2662 18.253 22.3099C18.1222 22.3158 18.0011 22.3177 17.8896 22.3177C17.8357 22.3177 17.7858 22.3177 17.7377 22.3158C17.7339 22.3158 17.7281 22.3158 17.7242 22.3158C17.6761 22.3138 17.63 22.3138 17.5858 22.3118C17.582 22.3118 17.5781 22.3118 17.5743 22.3118C17.5281 22.3099 17.4858 22.3078 17.4435 22.3039C17.4415 22.3039 17.4415 22.3039 17.4397 22.3039C17.0936 22.2801 16.8783 22.2325 16.7629 22.2008H16.761C16.7475 22.1969 16.736 22.1929 16.7264 22.1909C16.7244 22.1909 16.7225 22.1889 16.7225 22.1889C16.7129 22.185 16.7052 22.1829 16.6975 22.181C16.6956 22.181 16.6936 22.179 16.6917 22.179C16.686 22.177 16.6803 22.1751 16.6764 22.1731C16.6745 22.1731 16.6726 22.171 16.6706 22.171C16.6687 22.1691 16.6649 22.1691 16.6629 22.1671C16.661 22.1671 16.6591 22.1651 16.6591 22.1651L17.6165 21.4376L16.8225 18.1587C16.8225 18.1587 23.9479 16.5906 25.0668 16.2239C25.0726 16.222 25.0803 16.22 25.0861 16.2179L25.0842 16.2101C24.0844 15.2664 22.5847 14.5428 20.1218 14.8025L19.6162 14.3069C19.9122 14.1464 20.0564 14.1265 20.3044 13.8668C19.5277 12.2155 19.1681 10.4235 19.1547 9.43622C19.7295 9.27172 22.0118 9.06753 22.4982 6.46863C22.4982 6.46863 20.8697 7.61246 19.6104 6.94836C17.482 5.82436 15.9842 7.86621 15.9842 7.86621C15.9842 7.86621 14.5422 7.92964 14.5769 8.82568C14.6729 11.496 15.5074 13.4506 17.1167 15.7283C15.1536 16.6204 14.1769 17.4867 13.2637 18.8704C12.0447 20.7042 11.4333 23.1424 11.4333 23.1424C11.4333 23.1424 13.1368 25.2755 17.1205 25.7235C17.2032 25.3964 17.3628 25.3131 17.432 25.1348Z" fill="#171717"/>
</g>
</svg>
