<svg width="44" height="44" viewBox="0 0 44 44" fill="none" xmlns="http://www.w3.org/2000/svg">
<g id="logo">
<g id="logo_2">
<g id="Group 26">
<path id="Polygon 1" d="M4.75685 14.0721L0.0361357 6.29693H9.4585L4.75685 14.0721Z" fill="#1E22AA"/>
<path id="Polygon 2" d="M17.0065 15.4635L13.357 21.7656H20.656L17.0065 15.4635Z" fill="#1E22AA"/>
<path id="Polygon 3" d="M21.3253 23.026L21.3253 37.96H30.0317L21.3253 23.026Z" fill="#1E22AA"/>
<path id="Ellipse 4" d="M43.9 30.1302C43.9 34.4334 40.401 37.9219 36.0847 37.9219C31.7685 37.9219 28.2695 34.4334 28.2695 30.1302C28.2695 25.827 31.7685 22.3386 36.0847 22.3386C40.401 22.3386 43.9 25.827 43.9 30.1302Z" fill="#1E22AA"/>
<path id="Rectangle 70" d="M4.82397 22.1857H12.6392V37.9218H4.82397V22.1857Z" fill="#1E22AA"/>
<path id="Subtract" fill-rule="evenodd" clip-rule="evenodd" d="M13.0989 37.9218C17.4997 37.9218 21.0673 34.3992 21.0673 30.0538C21.0673 25.7084 17.4997 22.1857 13.0989 22.1857V37.9218Z" fill="#1E22AA"/>
<path id="Subtract_2" fill-rule="evenodd" clip-rule="evenodd" d="M25.889 29.8159C25.889 29.8159 25.889 29.8159 25.889 29.8158C28.0227 28.5503 29.4955 27.0746 27.9631 24.1719C27.1203 22.5753 25.6645 22.033 21.6037 22.4149C21.5713 22.4341 21.5393 22.4537 21.5077 22.4738L25.889 29.8159Z" fill="#1E22AA"/>
<path id="Rectangle 71" d="M4.75684 14.6667H12.6848V21.8019H4.75684V14.6667Z" fill="#1E22AA"/>
<path id="Rectangle 73" d="M17.1597 14.9288L22.2166 6.44958L31.0278 21.8801H21.2205L17.1597 14.9288Z" fill="#1E22AA"/>
<path id="Rectangle 72" d="M9.88088 6.29688H17.6195L12.6392 14.6997H4.82397L9.88088 6.29688Z" fill="#1E22AA"/>
</g>
</g>
</g>
</svg>
